<svg xmlns="http://www.w3.org/2000/svg" viewBox="0 0 1440 320"><path fill="#262626" fill-opacity="1" d="M0,96L36.9,160L73.8,256L110.8,160L147.7,128L184.6,128L221.5,160L258.5,320L295.4,128L332.3,160L369.2,256L406.2,224L443.1,160L480,32L516.9,64L553.8,192L590.8,192L627.7,256L664.6,192L701.5,96L738.5,192L775.4,128L812.3,192L849.2,96L886.2,160L923.1,288L960,160L996.9,256L1033.8,64L1070.8,160L1107.7,224L1144.6,288L1181.5,192L1218.5,288L1255.4,32L1292.3,192L1329.2,256L1366.2,160L1403.1,160L1440,0L1440,0L1403.1,0L1366.2,0L1329.2,0L1292.3,0L1255.4,0L1218.5,0L1181.5,0L1144.6,0L1107.7,0L1070.8,0L1033.8,0L996.9,0L960,0L923.1,0L886.2,0L849.2,0L812.3,0L775.4,0L738.5,0L701.5,0L664.6,0L627.7,0L590.8,0L553.8,0L516.9,0L480,0L443.1,0L406.2,0L369.2,0L332.3,0L295.4,0L258.5,0L221.5,0L184.6,0L147.7,0L110.8,0L73.8,0L36.9,0L0,0Z"></path></svg>