<svg xmlns="http://www.w3.org/2000/svg" viewBox="0 0 1440 320"><path fill="#262626" fill-opacity="1" d="M0,96L36.9,160L73.8,256L110.8,160L147.7,128L184.6,128L221.5,160L258.5,320L295.4,128L332.3,160L369.2,256L406.2,224L443.1,160L480,32L516.9,64L553.8,192L590.8,192L627.7,256L664.6,192L701.5,96L738.5,192L775.4,128L812.3,192L849.2,96L886.2,160L923.1,288L960,160L996.9,256L1033.8,64L1070.8,160L1107.7,224L1144.6,288L1181.5,192L1218.5,288L1255.4,32L1292.3,192L1329.2,256L1366.2,160L1403.1,160L1440,0L1440,320L1403.1,320L1366.2,320L1329.2,320L1292.3,320L1255.4,320L1218.5,320L1181.5,320L1144.6,320L1107.7,320L1070.8,320L1033.8,320L996.9,320L960,320L923.1,320L886.2,320L849.2,320L812.3,320L775.4,320L738.5,320L701.5,320L664.6,320L627.7,320L590.8,320L553.8,320L516.9,320L480,320L443.1,320L406.2,320L369.2,320L332.3,320L295.4,320L258.5,320L221.5,320L184.6,320L147.7,320L110.8,320L73.8,320L36.9,320L0,320Z"></path></svg>